<?xml version="1.0" standalone="no"?>
<!DOCTYPE svg PUBLIC "-//W3C//DTD SVG 20010904//EN"
 "http://www.w3.org/TR/2001/REC-SVG-20010904/DTD/svg10.dtd">
<svg version="1.0" xmlns="http://www.w3.org/2000/svg"
 width="512.000000pt" height="512.000000pt" viewBox="0 0 512.000000 512.000000"
 preserveAspectRatio="xMidYMid meet">

<g transform="translate(0.000000,512.000000) scale(0.100000,-0.100000)"
fill="#000000" stroke="none">
<path d="M400 4629 c-85 -14 -192 -70 -256 -133 -65 -66 -119 -172 -134 -266
-14 -89 -14 -1971 0 -2060 33 -207 198 -370 405 -400 96 -13 4194 -13 4290 0
207 30 372 193 405 400 14 89 14 1971 0 2060 -15 94 -69 200 -134 266 -67 66
-176 121 -267 134 -84 12 -4235 11 -4309 -1z m4331 -333 c14 -11 34 -31 45
-45 18 -25 19 -53 22 -1039 l2 -1014 -21 -38 c-12 -21 -38 -47 -59 -59 l-38
-21 -2122 0 -2122 0 -37 21 c-20 11 -45 32 -56 47 -20 27 -20 45 -23 1040 -2
999 -2 1013 18 1052 12 24 35 47 58 59 37 20 62 20 2172 18 2097 -2 2135 -2
2161 -21z"/>
<path d="M850 3988 c-41 -22 -51 -54 -48 -160 3 -86 6 -100 26 -120 21 -21 31
-23 132 -23 151 0 155 4 155 155 0 101 -2 111 -23 132 -20 20 -34 23 -120 26
-65 2 -105 -2 -122 -10z"/>
<path d="M1490 3988 c-41 -22 -51 -54 -48 -160 3 -86 6 -100 26 -120 21 -21
31 -23 132 -23 101 0 111 2 132 23 21 21 23 31 23 132 0 101 -2 111 -23 132
-20 20 -34 23 -120 26 -65 2 -105 -2 -122 -10z"/>
<path d="M2130 3988 c-41 -22 -51 -54 -48 -160 3 -86 6 -100 26 -120 21 -21
31 -23 132 -23 101 0 111 2 132 23 21 21 23 31 23 132 0 101 -2 111 -23 132
-20 20 -34 23 -120 26 -65 2 -105 -2 -122 -10z"/>
<path d="M2770 3988 c-41 -22 -51 -54 -48 -160 3 -86 6 -100 26 -120 21 -21
31 -23 132 -23 101 0 111 2 132 23 21 21 23 31 23 132 0 101 -2 111 -23 132
-20 20 -34 23 -120 26 -65 2 -105 -2 -122 -10z"/>
<path d="M3410 3988 c-41 -22 -51 -54 -48 -160 3 -86 6 -100 26 -120 21 -21
31 -23 132 -23 101 0 111 2 132 23 21 21 23 31 23 132 0 101 -2 111 -23 132
-20 20 -34 23 -120 26 -65 2 -105 -2 -122 -10z"/>
<path d="M4050 3988 c-41 -22 -51 -54 -48 -160 3 -86 6 -100 26 -120 21 -21
31 -23 132 -23 101 0 111 2 132 23 21 21 23 31 23 132 0 101 -2 111 -23 132
-20 20 -34 23 -120 26 -65 2 -105 -2 -122 -10z"/>
<path d="M850 3348 c-41 -22 -51 -54 -48 -160 3 -86 6 -100 26 -120 21 -21 31
-23 132 -23 151 0 155 4 155 155 0 101 -2 111 -23 132 -20 20 -34 23 -120 26
-65 2 -105 -2 -122 -10z"/>
<path d="M1490 3348 c-41 -22 -51 -54 -48 -160 3 -86 6 -100 26 -120 21 -21
31 -23 132 -23 101 0 111 2 132 23 21 21 23 31 23 132 0 101 -2 111 -23 132
-20 20 -34 23 -120 26 -65 2 -105 -2 -122 -10z"/>
<path d="M2130 3348 c-41 -22 -51 -54 -48 -160 3 -86 6 -100 26 -120 21 -21
31 -23 132 -23 101 0 111 2 132 23 21 21 23 31 23 132 0 101 -2 111 -23 132
-20 20 -34 23 -120 26 -65 2 -105 -2 -122 -10z"/>
<path d="M2770 3348 c-41 -22 -51 -54 -48 -160 3 -86 6 -100 26 -120 21 -21
31 -23 132 -23 101 0 111 2 132 23 21 21 23 31 23 132 0 101 -2 111 -23 132
-20 20 -34 23 -120 26 -65 2 -105 -2 -122 -10z"/>
<path d="M3410 3348 c-41 -22 -51 -54 -48 -160 3 -86 6 -100 26 -120 21 -21
31 -23 132 -23 101 0 111 2 132 23 21 21 23 31 23 132 0 101 -2 111 -23 132
-20 20 -34 23 -120 26 -65 2 -105 -2 -122 -10z"/>
<path d="M4050 3348 c-41 -22 -51 -54 -48 -160 3 -86 6 -100 26 -120 21 -21
31 -23 132 -23 101 0 111 2 132 23 21 21 23 31 23 132 0 101 -2 111 -23 132
-20 20 -34 23 -120 26 -65 2 -105 -2 -122 -10z"/>
<path d="M850 2708 c-41 -22 -51 -54 -48 -160 3 -86 6 -100 26 -120 21 -21 31
-23 132 -23 101 0 111 2 132 23 21 21 23 31 23 132 0 101 -2 111 -23 132 -20
20 -34 23 -120 26 -65 2 -105 -2 -122 -10z"/>
<path d="M1490 2707 c-41 -21 -51 -53 -48 -159 3 -86 6 -100 26 -120 l23 -23
1069 0 1069 0 23 23 c21 21 23 31 23 132 0 101 -2 111 -23 132 l-23 23 -1057
2 c-835 2 -1062 0 -1082 -10z"/>
<path d="M4050 2708 c-41 -22 -51 -54 -48 -160 3 -86 6 -100 26 -120 21 -21
31 -23 132 -23 101 0 111 2 132 23 21 21 23 31 23 132 0 101 -2 111 -23 132
-20 20 -34 23 -120 26 -65 2 -105 -2 -122 -10z"/>
<path d="M1644 1429 c-37 -10 -47 -29 -35 -62 12 -30 835 -843 875 -864 40
-21 112 -21 153 0 40 21 862 834 874 864 13 34 1 51 -39 63 -47 13 -1784 12
-1828 -1z"/>
</g>
</svg>
