<?xml version="1.0" standalone="no"?>
<!DOCTYPE svg PUBLIC "-//W3C//DTD SVG 20010904//EN"
 "http://www.w3.org/TR/2001/REC-SVG-20010904/DTD/svg10.dtd">
<svg version="1.0" xmlns="http://www.w3.org/2000/svg"
 width="370.000000pt" height="356.000000pt" viewBox="0 0 370.000000 356.000000"
 preserveAspectRatio="xMidYMid meet">

<g transform="translate(0.000000,356.000000) scale(0.100000,-0.100000)"
fill="#000000" stroke="none">
<path d="M1615 3470 c-171 -30 -464 -116 -405 -119 13 -1 13 -2 0 -11 -11 -8
-8 -9 14 -6 16 3 31 8 35 12 3 4 -1 5 -11 1 -9 -3 -19 -3 -22 0 -9 10 64 32
82 26 8 -4 20 0 26 8 14 19 83 40 104 32 10 -5 13 -3 8 6 -5 8 -3 11 5 10 8
-2 38 3 67 10 29 7 68 11 85 7 24 -5 28 -3 17 5 -11 8 -4 9 30 4 25 -3 64 -9
87 -12 28 -4 48 -1 58 7 20 17 165 17 204 0 17 -7 48 -10 70 -8 25 2 37 0 34
-7 -3 -5 0 -4 8 3 7 6 20 12 28 12 14 0 14 -2 1 -11 -12 -8 -9 -9 11 -5 15 3
40 1 55 -4 16 -6 43 -11 59 -13 17 -2 37 -6 45 -9 43 -17 116 -38 132 -38 10
0 18 -4 18 -10 0 -5 9 -10 21 -10 11 0 17 -4 14 -10 -3 -5 1 -10 10 -10 10 0
14 -5 9 -12 -6 -10 -4 -10 7 0 17 16 22 15 48 -7 13 -11 29 -17 37 -14 19 7
18 -7 -3 -22 -15 -11 -15 -13 6 -25 18 -9 22 -9 16 0 -5 9 -1 10 16 6 24 -7
24 -7 -1 8 -29 18 -12 21 24 5 14 -7 23 -16 20 -21 -3 -5 -2 -7 3 -6 14 4 92
-35 87 -44 -3 -5 -10 -5 -16 -2 -7 4 -8 2 -4 -5 6 -9 11 -9 22 0 18 15 14 19
-66 64 -164 91 -311 147 -505 191 -95 22 -139 26 -325 29 -118 2 -237 0 -265
-5z m174 -16 c9 -8 -75 -2 -94 6 -12 5 1 6 35 3 30 -3 57 -7 59 -9z"/>
<path d="M1888 3443 c12 -2 32 -2 45 0 12 2 2 4 -23 4 -25 0 -35 -2 -22 -4z"/>
<path d="M1678 3423 c6 -2 18 -2 25 0 6 3 1 5 -13 5 -14 0 -19 -2 -12 -5z"/>
<path d="M2010 3420 c-20 -6 -21 -8 -5 -8 11 0 31 4 45 8 20 6 21 8 5 8 -11 0
-31 -4 -45 -8z"/>
<path d="M2187 3419 c7 -7 15 -10 18 -7 3 3 -2 9 -12 12 -14 6 -15 5 -6 -5z"/>
<path d="M1510 3410 c34 -11 60 -11 35 0 -11 5 -29 8 -40 8 -16 0 -15 -2 5 -8z"/>
<path d="M1588 3413 c7 -3 16 -2 19 1 4 3 -2 6 -13 5 -11 0 -14 -3 -6 -6z"/>
<path d="M2099 3411 c12 -8 51 -4 51 5 0 2 -15 4 -32 4 -23 0 -29 -3 -19 -9z"/>
<path d="M1445 3400 c-3 -5 1 -10 9 -10 8 0 18 5 21 10 3 6 -1 10 -9 10 -8 0
-18 -4 -21 -10z"/>
<path d="M1718 3403 c6 -2 18 -2 25 0 6 3 1 5 -13 5 -14 0 -19 -2 -12 -5z"/>
<path d="M1820 3371 c0 -6 5 -13 10 -16 6 -3 10 1 10 9 0 9 -4 16 -10 16 -5 0
-10 -4 -10 -9z"/>
<path d="M1861 3364 c0 -11 3 -14 6 -6 3 7 2 16 -1 19 -3 4 -6 -2 -5 -13z"/>
<path d="M2413 3353 c9 -2 23 -2 30 0 6 3 -1 5 -18 5 -16 0 -22 -2 -12 -5z"/>
<path d="M1100 3309 c-30 -17 -47 -28 -37 -25 10 3 24 6 30 6 7 1 26 12 42 25
38 32 33 31 -35 -6z"/>
<path d="M2378 3333 c6 -2 18 -2 25 0 6 3 1 5 -13 5 -14 0 -19 -2 -12 -5z"/>
<path d="M2425 3330 c-3 -6 1 -7 9 -4 18 7 21 14 7 14 -6 0 -13 -4 -16 -10z"/>
<path d="M1455 3310 c3 -5 8 -10 11 -10 2 0 4 5 4 10 0 6 -5 10 -11 10 -5 0
-7 -4 -4 -10z"/>
<path d="M1020 3270 c-9 -6 -10 -10 -3 -10 6 0 15 5 18 10 8 12 4 12 -15 0z"/>
<path d="M986 3252 c-3 -4 4 -9 15 -9 23 -2 25 3 4 10 -8 4 -16 3 -19 -1z"/>
<path d="M1068 3248 c5 -5 16 -8 23 -6 8 3 3 7 -10 11 -17 4 -21 3 -13 -5z"/>
<path d="M1195 3241 c-9 -16 9 -20 23 -5 10 12 10 14 -2 14 -8 0 -17 -4 -21
-9z"/>
<path d="M925 3210 c-3 -5 -2 -10 4 -10 5 0 13 5 16 10 3 6 2 10 -4 10 -5 0
-13 -4 -16 -10z"/>
<path d="M2590 3200 c0 -5 5 -10 10 -10 6 0 10 5 10 10 0 6 -4 10 -10 10 -5 0
-10 -4 -10 -10z"/>
<path d="M876 3179 c-26 -21 -35 -49 -15 -49 6 0 9 6 6 14 -8 20 22 44 33 27
5 -9 10 -10 14 -2 4 6 2 11 -4 11 -6 0 -8 5 -5 10 10 15 0 12 -29 -11z"/>
<path d="M2804 3175 c11 -8 23 -15 28 -15 4 0 7 -6 6 -12 -2 -7 4 -14 12 -14
32 -3 34 -5 17 -15 -9 -5 -23 -7 -30 -3 -9 5 -9 4 -1 -5 9 -10 17 -10 35 -1
19 11 24 10 36 -6 7 -10 13 -15 13 -11 0 4 9 -1 21 -12 12 -11 18 -24 15 -30
-5 -7 -1 -8 10 -4 13 5 15 3 9 -7 -5 -8 -4 -11 2 -7 10 6 108 -78 108 -92 0
-4 19 -24 42 -45 23 -20 45 -46 48 -57 4 -11 10 -17 15 -14 13 8 -71 105 -91
105 -6 0 -8 4 -5 9 12 19 -232 226 -289 244 -20 7 -20 7 -1 -8z"/>
<path d="M1008 3153 c-10 -2 -18 -11 -18 -19 0 -18 9 -18 31 1 15 14 18 14 34
-1 16 -17 17 -17 13 2 -3 19 -28 26 -60 17z"/>
<path d="M902 3130 c0 -14 2 -19 5 -12 2 6 2 18 0 25 -3 6 -5 1 -5 -13z"/>
<path d="M815 3132 c3 -3 0 -11 -6 -18 -7 -8 -6 -14 2 -20 8 -4 9 -3 5 5 -4 6
0 14 8 17 20 8 21 21 1 21 -8 0 -13 -3 -10 -5z"/>
<path d="M868 3114 c-4 -4 1 -15 13 -25 20 -17 20 -17 -11 -39 -42 -30 -38
-45 5 -18 19 13 35 28 35 34 0 18 -34 56 -42 48z"/>
<path d="M1020 3110 c0 -5 7 -10 15 -10 8 0 15 5 15 10 0 6 -7 10 -15 10 -8 0
-15 -4 -15 -10z"/>
<path d="M1151 3104 c0 -11 3 -14 6 -6 3 7 2 16 -1 19 -3 4 -6 -2 -5 -13z"/>
<path d="M734 3058 c2 -9 -2 -22 -10 -28 -8 -7 -14 -17 -14 -22 0 -5 9 0 21
11 17 16 19 23 9 38 -9 14 -10 15 -6 1z"/>
<path d="M641 2986 c-21 -22 -30 -39 -25 -47 5 -8 2 -11 -8 -6 -16 6 -38 -10
-38 -27 0 -6 5 -4 10 4 5 8 17 15 27 15 10 0 18 7 18 18 0 10 5 21 10 25 14
10 49 52 44 52 -3 0 -20 -15 -38 -34z"/>
<path d="M1715 3010 c-4 -6 11 -10 34 -10 23 0 41 4 41 8 0 12 -68 13 -75 2z"/>
<path d="M2932 2998 c7 -15 15 -23 17 -17 2 6 -4 18 -13 27 -15 15 -15 15 -4
-10z"/>
<path d="M2976 3011 c-3 -5 2 -15 12 -22 15 -13 16 -12 4 3 -10 13 -10 17 0
21 9 4 9 6 1 6 -6 1 -14 -3 -17 -8z"/>
<path d="M1888 3003 c12 -2 32 -2 45 0 12 2 2 4 -23 4 -25 0 -35 -2 -22 -4z"/>
<path d="M2858 3003 c7 -3 16 -2 19 1 4 3 -2 6 -13 5 -11 0 -14 -3 -6 -6z"/>
<path d="M1420 2990 c-9 -6 -10 -10 -3 -10 6 0 15 5 18 10 8 12 4 12 -15 0z"/>
<path d="M1515 2984 c19 -15 19 -15 -10 -9 -24 5 -27 4 -13 -5 12 -8 30 -7 63
1 46 12 46 29 0 28 l-20 0 20 -9 c19 -8 19 -9 -2 -9 -12 -1 -25 4 -28 9 -3 6
-12 10 -18 10 -7 0 -3 -8 8 -16z"/>
<path d="M2168 2993 c6 -2 18 -2 25 0 6 3 1 5 -13 5 -14 0 -19 -2 -12 -5z"/>
<path d="M2911 2974 c0 -11 3 -14 6 -6 3 7 2 16 -1 19 -3 4 -6 -2 -5 -13z"/>
<path d="M2145 2970 c3 -5 8 -10 11 -10 2 0 4 5 4 10 0 6 -5 10 -11 10 -5 0
-7 -4 -4 -10z"/>
<path d="M2243 2965 c0 -8 4 -12 9 -9 5 3 6 10 3 15 -9 13 -12 11 -12 -6z"/>
<path d="M1406 2961 c-4 -5 3 -7 14 -4 23 6 26 13 6 13 -8 0 -17 -4 -20 -9z"/>
<path d="M655 2949 c-4 -6 -5 -12 -2 -15 2 -3 7 2 10 11 7 17 1 20 -8 4z"/>
<path d="M1402 2934 c-30 -13 -57 -22 -62 -19 -4 3 -16 2 -25 -1 -13 -6 -14
-9 -3 -16 9 -7 5 -8 -12 -4 -31 7 -60 -8 -35 -18 9 -3 46 7 83 23 37 15 85 35
107 44 22 9 31 16 20 16 -11 -1 -44 -12 -73 -25z"/>
<path d="M2195 2950 c27 -12 43 -12 25 0 -8 5 -22 9 -30 9 -10 0 -8 -3 5 -9z"/>
<path d="M2860 2950 c0 -5 5 -10 10 -10 6 0 10 5 10 10 0 6 -4 10 -10 10 -5 0
-10 -4 -10 -10z"/>
<path d="M2993 2931 c-11 -17 -10 -18 12 -7 13 6 21 14 19 18 -8 13 -18 9 -31
-11z"/>
<path d="M2920 2929 c0 -5 -5 -7 -12 -3 -7 4 -8 3 -4 -4 4 -6 13 -9 21 -5 17
6 20 23 5 23 -5 0 -10 -5 -10 -11z"/>
<path d="M2331 2911 c-12 -8 -9 -11 12 -17 16 -3 31 -4 34 0 4 3 -5 6 -18 7
-22 0 -23 1 -4 9 13 6 15 9 5 9 -8 0 -22 -3 -29 -8z"/>
<path d="M2405 2890 c-3 -6 1 -7 9 -4 18 7 21 14 7 14 -6 0 -13 -4 -16 -10z"/>
<path d="M566 2871 c-12 -13 -14 -21 -6 -26 6 -4 14 -4 17 -1 4 3 1 6 -6 6 -7
0 -9 5 -6 10 4 6 11 8 16 5 5 -4 9 1 9 9 0 21 -3 20 -24 -3z"/>
<path d="M3081 2864 c0 -11 3 -14 6 -6 3 7 2 16 -1 19 -3 4 -6 -2 -5 -13z"/>
<path d="M1233 2864 c4 -4 1 -14 -6 -23 -11 -14 -10 -15 8 -1 11 8 21 15 23
16 2 1 -5 5 -15 8 -9 4 -14 4 -10 0z"/>
<path d="M2995 2850 c3 -5 13 -10 21 -10 8 0 14 5 14 10 0 6 -9 10 -21 10 -11
0 -17 -4 -14 -10z"/>
<path d="M2557 2809 c7 -7 15 -10 18 -7 3 3 -2 9 -12 12 -14 6 -15 5 -6 -5z"/>
<path d="M3203 2805 c0 -8 5 -11 10 -8 5 3 7 0 5 -8 -3 -8 -12 -12 -19 -11 -8
2 -10 0 -6 -5 5 -4 18 -8 30 -8 13 -1 21 -6 19 -14 -1 -7 2 -10 8 -6 6 4 0 20
-16 41 -30 39 -31 39 -31 19z"/>
<path d="M472 2777 c-18 -18 -32 -37 -32 -42 0 -6 12 5 26 23 14 18 30 30 35
27 5 -4 9 1 9 9 0 21 -1 21 -38 -17z"/>
<path d="M501 2744 c0 -11 3 -14 6 -6 3 7 2 16 -1 19 -3 4 -6 -2 -5 -13z"/>
<path d="M2633 2754 c4 -4 -1 -13 -11 -21 -15 -12 -14 -13 8 -2 33 16 33 16
13 23 -9 4 -14 4 -10 0z"/>
<path d="M2920 2740 c0 -5 5 -10 10 -10 6 0 10 5 10 10 0 6 -4 10 -10 10 -5 0
-10 -4 -10 -10z"/>
<path d="M2960 2740 c0 -5 5 -10 10 -10 6 0 10 5 10 10 0 6 -4 10 -10 10 -5 0
-10 -4 -10 -10z"/>
<path d="M3256 2732 c-3 -5 1 -9 9 -9 8 0 12 4 9 9 -3 4 -7 8 -9 8 -2 0 -6 -4
-9 -8z"/>
<path d="M466 2713 c-6 -14 -5 -15 5 -6 7 7 10 15 7 18 -3 3 -9 -2 -12 -12z"/>
<path d="M2640 2720 c-12 -7 -10 -9 8 -7 12 0 22 5 22 9 0 11 -12 10 -30 -2z"/>
<path d="M411 2701 c-6 -11 -7 -22 -2 -25 5 -3 11 4 14 16 8 30 1 35 -12 9z"/>
<path d="M2727 2683 c-16 -31 -16 -33 3 -43 22 -12 27 -1 8 18 -10 10 -10 15
1 21 7 5 11 15 9 22 -3 9 -11 2 -21 -18z"/>
<path d="M475 2690 c-19 -8 -19 -9 2 -9 12 -1 25 4 28 9 7 12 -2 12 -30 0z"/>
<path d="M3306 2655 c14 -19 28 -35 31 -35 9 0 -32 60 -44 65 -8 2 -2 -11 13
-30z"/>
<path d="M371 2638 c-10 -16 -10 -23 0 -32 9 -8 10 -8 5 2 -4 7 -2 20 5 28 6
8 10 16 8 19 -3 2 -11 -5 -18 -17z"/>
<path d="M390 2621 c0 -6 4 -13 10 -16 6 -3 7 1 4 9 -7 18 -14 21 -14 7z"/>
<path d="M2769 2590 c7 -4 22 -5 32 -3 10 3 19 0 19 -6 0 -6 -7 -11 -16 -11
-8 0 -13 -4 -9 -10 9 -15 36 1 33 19 -2 11 -15 17 -37 18 -21 1 -29 -2 -22 -7z"/>
<path d="M525 2581 c-3 -5 -1 -12 5 -16 5 -3 10 1 10 9 0 18 -6 21 -15 7z"/>
<path d="M3365 2549 c-4 -6 2 -19 14 -30 12 -11 21 -25 21 -31 0 -6 2 -9 5 -6
10 9 -17 58 -28 51 -6 -4 -8 0 -4 10 7 19 2 23 -8 6z"/>
<path d="M317 2531 c-4 -17 -3 -21 5 -13 5 5 8 16 6 23 -3 8 -7 3 -11 -10z"/>
<path d="M857 2505 c-8 -8 -16 -12 -19 -10 -2 2 -4 -5 -4 -15 0 -11 1 -20 1
-20 1 0 11 14 23 30 24 32 23 40 -1 15z"/>
<path d="M2855 2509 c-4 -6 -5 -12 -2 -15 2 -3 7 2 10 11 7 17 1 20 -8 4z"/>
<path d="M286 2472 c-13 -24 -13 -29 -1 -29 8 0 12 4 9 8 -3 5 0 18 6 29 6 11
8 20 6 20 -3 0 -12 -13 -20 -28z"/>
<path d="M2866 2478 c-9 -10 -11 -18 -6 -18 6 0 13 7 17 16 5 14 8 12 19 -7
l12 -24 -1 26 c-2 30 -19 33 -41 7z"/>
<path d="M771 2433 c-1 -17 16 -25 25 -12 4 7 3 9 -4 5 -5 -3 -13 0 -15 6 -4
9 -6 10 -6 1z"/>
<path d="M2885 2429 c-6 -8 -4 -10 5 -4 10 6 12 4 6 -11 -6 -15 -5 -17 5 -6 9
9 10 15 2 23 -8 8 -13 7 -18 -2z"/>
<path d="M775 2370 c-9 -16 -13 -30 -11 -30 3 0 12 14 21 30 9 17 13 30 11 30
-3 0 -12 -13 -21 -30z"/>
<path d="M3435 2390 c-3 -5 -1 -10 4 -10 6 0 11 5 11 10 0 6 -2 10 -4 10 -3 0
-8 -4 -11 -10z"/>
<path d="M251 2368 c0 -15 -5 -30 -11 -33 -5 -3 -10 -18 -10 -33 1 -23 3 -20
16 16 8 24 13 51 11 60 -3 10 -5 6 -6 -10z"/>
<path d="M2926 2347 c3 -10 9 -15 12 -12 3 3 0 11 -7 18 -10 9 -11 8 -5 -6z"/>
<path d="M2955 2300 c3 -5 8 -10 11 -10 2 0 4 5 4 10 0 6 -5 10 -11 10 -5 0
-7 -4 -4 -10z"/>
<path d="M2977 2278 c-3 -12 -3 -28 1 -35 5 -8 8 0 9 22 1 40 -2 44 -10 13z"/>
<path d="M3475 2280 c3 -14 17 -70 30 -125 13 -55 24 -92 24 -81 1 26 -39 198
-51 216 -7 11 -8 8 -3 -10z"/>
<path d="M210 2259 c0 -5 4 -8 9 -4 5 3 11 -5 13 -17 3 -21 4 -21 9 5 5 22 3
27 -12 27 -11 0 -19 -5 -19 -11z"/>
<path d="M690 2240 c6 -11 13 -20 16 -20 2 0 0 9 -6 20 -6 11 -13 20 -16 20
-2 0 0 -9 6 -20z"/>
<path d="M890 2138 l0 -93 38 1 c20 1 139 2 265 3 l227 1 0 90 0 90 -265 0
-265 0 0 -92z"/>
<path d="M1887 1908 c-9 -410 -9 -842 0 -1365 l6 -413 56 0 c63 0 213 23 305
46 l61 15 -3 930 -4 929 246 0 246 0 0 90 0 90 -453 0 -454 0 -6 -322z"/>
<path d="M228 2189 c9 -11 17 -19 18 -19 1 0 4 8 7 19 3 14 -1 19 -18 19 -21
0 -22 -2 -7 -19z"/>
<path d="M3016 2181 c-5 -13 -4 -27 3 -34 16 -16 21 -4 12 29 -8 29 -8 29 -15
5z"/>
<path d="M3046 2175 c8 -37 14 -45 14 -19 0 10 -5 26 -10 34 -8 11 -9 7 -4
-15z"/>
<path d="M3030 2119 c-13 -9 -12 -10 3 -5 20 6 22 -5 5 -22 -6 -6 -9 -14 -6
-18 4 -3 12 4 18 16 14 26 1 44 -20 29z"/>
<path d="M3471 2074 c0 -11 3 -14 6 -6 3 7 2 16 -1 19 -3 4 -6 -2 -5 -13z"/>
<path d="M3047 2063 c-3 -5 -1 -26 4 -48 l8 -40 -2 37 c-2 21 2 39 7 41 6 2 6
6 -1 10 -7 4 -14 4 -16 0z"/>
<path d="M161 2023 c-14 -48 -14 -114 0 -133 7 -11 8 -5 3 23 -13 75 13 158
29 92 4 -18 5 -17 6 3 0 13 -6 30 -13 38 -13 13 -16 10 -25 -23z"/>
<path d="M611 2034 c0 -11 3 -14 6 -6 3 7 2 16 -1 19 -3 4 -6 -2 -5 -13z"/>
<path d="M3533 2010 c0 -25 2 -35 4 -22 2 12 2 32 0 45 -2 12 -4 2 -4 -23z"/>
<path d="M631 1984 c0 -11 3 -14 6 -6 3 7 2 16 -1 19 -3 4 -6 -2 -5 -13z"/>
<path d="M175 1960 c-3 -5 -1 -10 4 -10 6 0 11 5 11 10 0 6 -2 10 -4 10 -3 0
-8 -4 -11 -10z"/>
<path d="M508 1890 c-10 -11 -13 -22 -8 -25 6 -4 10 -1 10 5 0 6 4 9 9 5 13
-8 25 15 14 26 -5 5 -16 1 -25 -11z"/>
<path d="M622 1885 c0 -16 2 -22 5 -12 2 9 2 23 0 30 -3 6 -5 -1 -5 -18z"/>
<path d="M573 1875 c0 -14 3 -28 7 -30 11 -7 21 22 14 40 -9 23 -21 18 -21
-10z"/>
<path d="M3073 1845 c0 -22 2 -30 4 -17 2 12 2 30 0 40 -3 9 -5 -1 -4 -23z"/>
</g>
</svg>
