<?xml version="1.0" standalone="no"?>
<!DOCTYPE svg PUBLIC "-//W3C//DTD SVG 20010904//EN"
 "http://www.w3.org/TR/2001/REC-SVG-20010904/DTD/svg10.dtd">
<svg version="1.0" xmlns="http://www.w3.org/2000/svg"
 width="490.000000pt" height="505.000000pt" viewBox="0 0 490.000000 505.000000"
 preserveAspectRatio="xMidYMid meet">

<g transform="translate(0.000000,505.000000) scale(0.100000,-0.100000)"
fill="#000000" stroke="none">
<path d="M2225 4960 c-171 -30 -464 -116 -405 -119 13 -1 13 -2 0 -11 -11 -8
-8 -9 14 -6 16 3 31 8 35 12 3 4 -1 5 -11 1 -9 -3 -19 -3 -22 0 -9 10 64 32
82 26 8 -4 20 0 26 8 14 19 83 40 104 32 10 -5 13 -3 8 6 -5 8 -3 11 5 10 8
-2 38 3 67 10 29 7 68 11 85 7 24 -5 28 -3 17 5 -11 8 -4 9 30 4 25 -3 64 -9
87 -12 28 -4 48 -1 58 7 20 17 165 17 204 0 17 -7 48 -10 70 -8 25 2 37 0 34
-7 -3 -5 0 -4 8 3 7 6 20 12 28 12 14 0 14 -2 1 -11 -12 -8 -9 -9 11 -5 15 3
40 1 55 -4 16 -6 43 -11 59 -13 17 -2 37 -6 45 -9 43 -17 116 -38 132 -38 10
0 18 -4 18 -10 0 -5 9 -10 21 -10 11 0 17 -4 14 -10 -3 -5 1 -10 10 -10 10 0
14 -5 9 -12 -6 -10 -4 -10 7 0 17 16 22 15 48 -7 13 -11 29 -17 37 -14 19 7
18 -7 -3 -22 -15 -11 -15 -13 6 -25 18 -9 22 -9 16 0 -5 9 -1 10 16 6 24 -7
24 -7 -1 8 -29 18 -12 21 24 5 14 -7 23 -16 20 -21 -3 -5 -2 -7 3 -6 14 4 92
-35 87 -44 -3 -5 -10 -5 -16 -2 -7 4 -8 2 -4 -5 6 -9 11 -9 22 0 18 15 14 19
-66 64 -164 91 -311 147 -505 191 -95 22 -139 26 -325 29 -118 2 -237 0 -265
-5z m174 -16 c9 -8 -75 -2 -94 6 -12 5 1 6 35 3 30 -3 57 -7 59 -9z"/>
<path d="M2498 4933 c12 -2 32 -2 45 0 12 2 2 4 -23 4 -25 0 -35 -2 -22 -4z"/>
<path d="M2288 4913 c6 -2 18 -2 25 0 6 3 1 5 -13 5 -14 0 -19 -2 -12 -5z"/>
<path d="M2620 4910 c-20 -6 -21 -8 -5 -8 11 0 31 4 45 8 20 6 21 8 5 8 -11 0
-31 -4 -45 -8z"/>
<path d="M2797 4909 c7 -7 15 -10 18 -7 3 3 -2 9 -12 12 -14 6 -15 5 -6 -5z"/>
<path d="M2120 4900 c34 -11 60 -11 35 0 -11 5 -29 8 -40 8 -16 0 -15 -2 5 -8z"/>
<path d="M2198 4903 c7 -3 16 -2 19 1 4 3 -2 6 -13 5 -11 0 -14 -3 -6 -6z"/>
<path d="M2709 4901 c12 -8 51 -4 51 5 0 2 -15 4 -32 4 -23 0 -29 -3 -19 -9z"/>
<path d="M2055 4890 c-3 -5 1 -10 9 -10 8 0 18 5 21 10 3 6 -1 10 -9 10 -8 0
-18 -4 -21 -10z"/>
<path d="M2328 4893 c6 -2 18 -2 25 0 6 3 1 5 -13 5 -14 0 -19 -2 -12 -5z"/>
<path d="M2430 4861 c0 -6 5 -13 10 -16 6 -3 10 1 10 9 0 9 -4 16 -10 16 -5 0
-10 -4 -10 -9z"/>
<path d="M2471 4854 c0 -11 3 -14 6 -6 3 7 2 16 -1 19 -3 4 -6 -2 -5 -13z"/>
<path d="M3023 4843 c9 -2 23 -2 30 0 6 3 -1 5 -18 5 -16 0 -22 -2 -12 -5z"/>
<path d="M1710 4799 c-30 -17 -47 -28 -37 -25 10 3 24 6 30 6 7 1 26 12 42 25
38 32 33 31 -35 -6z"/>
<path d="M2988 4823 c6 -2 18 -2 25 0 6 3 1 5 -13 5 -14 0 -19 -2 -12 -5z"/>
<path d="M3035 4820 c-3 -6 1 -7 9 -4 18 7 21 14 7 14 -6 0 -13 -4 -16 -10z"/>
<path d="M2065 4800 c3 -5 8 -10 11 -10 2 0 4 5 4 10 0 6 -5 10 -11 10 -5 0
-7 -4 -4 -10z"/>
<path d="M1630 4760 c-9 -6 -10 -10 -3 -10 6 0 15 5 18 10 8 12 4 12 -15 0z"/>
<path d="M1596 4742 c-3 -4 4 -9 15 -9 23 -2 25 3 4 10 -8 4 -16 3 -19 -1z"/>
<path d="M1678 4738 c5 -5 16 -8 23 -6 8 3 3 7 -10 11 -17 4 -21 3 -13 -5z"/>
<path d="M1805 4731 c-9 -16 9 -20 23 -5 10 12 10 14 -2 14 -8 0 -17 -4 -21
-9z"/>
<path d="M1535 4700 c-3 -5 -2 -10 4 -10 5 0 13 5 16 10 3 6 2 10 -4 10 -5 0
-13 -4 -16 -10z"/>
<path d="M3200 4690 c0 -5 5 -10 10 -10 6 0 10 5 10 10 0 6 -4 10 -10 10 -5 0
-10 -4 -10 -10z"/>
<path d="M1486 4669 c-26 -21 -35 -49 -15 -49 6 0 9 6 6 14 -8 20 22 44 33 27
5 -9 10 -10 14 -2 4 6 2 11 -4 11 -6 0 -8 5 -5 10 10 15 0 12 -29 -11z"/>
<path d="M3414 4665 c11 -8 23 -15 28 -15 4 0 7 -6 6 -12 -2 -7 4 -14 12 -14
32 -3 34 -5 17 -15 -9 -5 -23 -7 -30 -3 -9 5 -9 4 -1 -5 9 -10 17 -10 35 -1
19 11 24 10 36 -6 7 -10 13 -15 13 -11 0 4 9 -1 21 -12 12 -11 18 -24 15 -30
-5 -7 -1 -8 10 -4 13 5 15 3 9 -7 -5 -8 -4 -11 2 -7 10 6 108 -78 108 -92 0
-4 19 -24 42 -45 23 -20 45 -46 48 -57 4 -11 10 -17 15 -14 13 8 -71 105 -91
105 -6 0 -8 4 -5 9 12 19 -232 226 -289 244 -20 7 -20 7 -1 -8z"/>
<path d="M1618 4643 c-10 -2 -18 -11 -18 -19 0 -18 9 -18 31 1 15 14 18 14 34
-1 16 -17 17 -17 13 2 -3 19 -28 26 -60 17z"/>
<path d="M1512 4620 c0 -14 2 -19 5 -12 2 6 2 18 0 25 -3 6 -5 1 -5 -13z"/>
<path d="M1425 4622 c3 -3 0 -11 -6 -18 -7 -8 -6 -14 2 -20 8 -4 9 -3 5 5 -4
6 0 14 8 17 20 8 21 21 1 21 -8 0 -13 -3 -10 -5z"/>
<path d="M1478 4604 c-4 -4 1 -15 13 -25 20 -17 20 -17 -11 -39 -42 -30 -38
-45 5 -18 19 13 35 28 35 34 0 18 -34 56 -42 48z"/>
<path d="M1630 4600 c0 -5 7 -10 15 -10 8 0 15 5 15 10 0 6 -7 10 -15 10 -8 0
-15 -4 -15 -10z"/>
<path d="M1761 4594 c0 -11 3 -14 6 -6 3 7 2 16 -1 19 -3 4 -6 -2 -5 -13z"/>
<path d="M1344 4548 c2 -9 -2 -22 -10 -28 -8 -7 -14 -17 -14 -22 0 -5 9 0 21
11 17 16 19 23 9 38 -9 14 -10 15 -6 1z"/>
<path d="M1251 4476 c-21 -22 -30 -39 -25 -47 5 -8 2 -11 -8 -6 -16 6 -38 -10
-38 -27 0 -6 5 -4 10 4 5 8 17 15 27 15 10 0 18 7 18 18 0 10 5 21 10 25 14
10 49 52 44 52 -3 0 -20 -15 -38 -34z"/>
<path d="M2325 4500 c-4 -6 11 -10 34 -10 23 0 41 4 41 8 0 12 -68 13 -75 2z"/>
<path d="M3542 4488 c7 -15 15 -23 17 -17 2 6 -4 18 -13 27 -15 15 -15 15 -4
-10z"/>
<path d="M3586 4501 c-3 -5 2 -15 12 -22 15 -13 16 -12 4 3 -10 13 -10 17 0
21 9 4 9 6 1 6 -6 1 -14 -3 -17 -8z"/>
<path d="M2498 4493 c12 -2 32 -2 45 0 12 2 2 4 -23 4 -25 0 -35 -2 -22 -4z"/>
<path d="M3468 4493 c7 -3 16 -2 19 1 4 3 -2 6 -13 5 -11 0 -14 -3 -6 -6z"/>
<path d="M2030 4480 c-9 -6 -10 -10 -3 -10 6 0 15 5 18 10 8 12 4 12 -15 0z"/>
<path d="M2125 4474 c19 -15 19 -15 -10 -9 -24 5 -27 4 -13 -5 12 -8 30 -7 63
1 46 12 46 29 0 28 l-20 0 20 -9 c19 -8 19 -9 -2 -9 -12 -1 -25 4 -28 9 -3 6
-12 10 -18 10 -7 0 -3 -8 8 -16z"/>
<path d="M2778 4483 c6 -2 18 -2 25 0 6 3 1 5 -13 5 -14 0 -19 -2 -12 -5z"/>
<path d="M3521 4464 c0 -11 3 -14 6 -6 3 7 2 16 -1 19 -3 4 -6 -2 -5 -13z"/>
<path d="M2755 4460 c3 -5 8 -10 11 -10 2 0 4 5 4 10 0 6 -5 10 -11 10 -5 0
-7 -4 -4 -10z"/>
<path d="M2853 4455 c0 -8 4 -12 9 -9 5 3 6 10 3 15 -9 13 -12 11 -12 -6z"/>
<path d="M2016 4451 c-4 -5 3 -7 14 -4 23 6 26 13 6 13 -8 0 -17 -4 -20 -9z"/>
<path d="M1265 4439 c-4 -6 -5 -12 -2 -15 2 -3 7 2 10 11 7 17 1 20 -8 4z"/>
<path d="M2012 4424 c-30 -13 -57 -22 -62 -19 -4 3 -16 2 -25 -1 -13 -6 -14
-9 -3 -16 9 -7 5 -8 -12 -4 -31 7 -60 -8 -35 -18 9 -3 46 7 83 23 37 15 85 35
107 44 22 9 31 16 20 16 -11 -1 -44 -12 -73 -25z"/>
<path d="M2805 4440 c27 -12 43 -12 25 0 -8 5 -22 9 -30 9 -10 0 -8 -3 5 -9z"/>
<path d="M3470 4440 c0 -5 5 -10 10 -10 6 0 10 5 10 10 0 6 -4 10 -10 10 -5 0
-10 -4 -10 -10z"/>
<path d="M3603 4421 c-11 -17 -10 -18 12 -7 13 6 21 14 19 18 -8 13 -18 9 -31
-11z"/>
<path d="M3530 4419 c0 -5 -5 -7 -12 -3 -7 4 -8 3 -4 -4 4 -6 13 -9 21 -5 17
6 20 23 5 23 -5 0 -10 -5 -10 -11z"/>
<path d="M2941 4401 c-12 -8 -9 -11 12 -17 16 -3 31 -4 34 0 4 3 -5 6 -18 7
-22 0 -23 1 -4 9 13 6 15 9 5 9 -8 0 -22 -3 -29 -8z"/>
<path d="M3015 4380 c-3 -6 1 -7 9 -4 18 7 21 14 7 14 -6 0 -13 -4 -16 -10z"/>
<path d="M1176 4361 c-12 -13 -14 -21 -6 -26 6 -4 14 -4 17 -1 4 3 1 6 -6 6
-7 0 -9 5 -6 10 4 6 11 8 16 5 5 -4 9 1 9 9 0 21 -3 20 -24 -3z"/>
<path d="M3691 4354 c0 -11 3 -14 6 -6 3 7 2 16 -1 19 -3 4 -6 -2 -5 -13z"/>
<path d="M1843 4354 c4 -4 1 -14 -6 -23 -11 -14 -10 -15 8 -1 11 8 21 15 23
16 2 1 -5 5 -15 8 -9 4 -14 4 -10 0z"/>
<path d="M3605 4340 c3 -5 13 -10 21 -10 8 0 14 5 14 10 0 6 -9 10 -21 10 -11
0 -17 -4 -14 -10z"/>
<path d="M3167 4299 c7 -7 15 -10 18 -7 3 3 -2 9 -12 12 -14 6 -15 5 -6 -5z"/>
<path d="M3813 4295 c0 -8 5 -11 10 -8 5 3 7 0 5 -8 -3 -8 -12 -12 -19 -11 -8
2 -10 0 -6 -5 5 -4 18 -8 30 -8 13 -1 21 -6 19 -14 -1 -7 2 -10 8 -6 6 4 0 20
-16 41 -30 39 -31 39 -31 19z"/>
<path d="M1082 4267 c-18 -18 -32 -37 -32 -42 0 -6 12 5 26 23 14 18 30 30 35
27 5 -4 9 1 9 9 0 21 -1 21 -38 -17z"/>
<path d="M1111 4234 c0 -11 3 -14 6 -6 3 7 2 16 -1 19 -3 4 -6 -2 -5 -13z"/>
<path d="M3243 4244 c4 -4 -1 -13 -11 -21 -15 -12 -14 -13 8 -2 33 16 33 16
13 23 -9 4 -14 4 -10 0z"/>
<path d="M3530 4230 c0 -5 5 -10 10 -10 6 0 10 5 10 10 0 6 -4 10 -10 10 -5 0
-10 -4 -10 -10z"/>
<path d="M3570 4230 c0 -5 5 -10 10 -10 6 0 10 5 10 10 0 6 -4 10 -10 10 -5 0
-10 -4 -10 -10z"/>
<path d="M3866 4222 c-3 -5 1 -9 9 -9 8 0 12 4 9 9 -3 4 -7 8 -9 8 -2 0 -6 -4
-9 -8z"/>
<path d="M1076 4203 c-6 -14 -5 -15 5 -6 7 7 10 15 7 18 -3 3 -9 -2 -12 -12z"/>
<path d="M3250 4210 c-12 -7 -10 -9 8 -7 12 0 22 5 22 9 0 11 -12 10 -30 -2z"/>
<path d="M1021 4191 c-6 -11 -7 -22 -2 -25 5 -3 11 4 14 16 8 30 1 35 -12 9z"/>
<path d="M3337 4173 c-16 -31 -16 -33 3 -43 22 -12 27 -1 8 18 -10 10 -10 15
1 21 7 5 11 15 9 22 -3 9 -11 2 -21 -18z"/>
<path d="M1085 4180 c-19 -8 -19 -9 2 -9 12 -1 25 4 28 9 7 12 -2 12 -30 0z"/>
<path d="M3916 4145 c14 -19 28 -35 31 -35 9 0 -32 60 -44 65 -8 2 -2 -11 13
-30z"/>
<path d="M981 4128 c-10 -16 -10 -23 0 -32 9 -8 10 -8 5 2 -4 7 -2 20 5 28 6
8 10 16 8 19 -3 2 -11 -5 -18 -17z"/>
<path d="M1000 4111 c0 -6 4 -13 10 -16 6 -3 7 1 4 9 -7 18 -14 21 -14 7z"/>
<path d="M3379 4080 c7 -4 22 -5 32 -3 10 3 19 0 19 -6 0 -6 -7 -11 -16 -11
-8 0 -13 -4 -9 -10 9 -15 36 1 33 19 -2 11 -15 17 -37 18 -21 1 -29 -2 -22 -7z"/>
<path d="M1135 4071 c-3 -5 -1 -12 5 -16 5 -3 10 1 10 9 0 18 -6 21 -15 7z"/>
<path d="M3975 4039 c-4 -6 2 -19 14 -30 12 -11 21 -25 21 -31 0 -6 2 -9 5 -6
10 9 -17 58 -28 51 -6 -4 -8 0 -4 10 7 19 2 23 -8 6z"/>
<path d="M927 4021 c-4 -17 -3 -21 5 -13 5 5 8 16 6 23 -3 8 -7 3 -11 -10z"/>
<path d="M1467 3995 c-8 -8 -16 -12 -19 -10 -2 2 -4 -5 -4 -15 0 -11 1 -20 1
-20 1 0 11 14 23 30 24 32 23 40 -1 15z"/>
<path d="M3465 3999 c-4 -6 -5 -12 -2 -15 2 -3 7 2 10 11 7 17 1 20 -8 4z"/>
<path d="M896 3962 c-13 -24 -13 -29 -1 -29 8 0 12 4 9 8 -3 5 0 18 6 29 6 11
8 20 6 20 -3 0 -12 -13 -20 -28z"/>
<path d="M3476 3968 c-9 -10 -11 -18 -6 -18 6 0 13 7 17 16 5 14 8 12 19 -7
l12 -24 -1 26 c-2 30 -19 33 -41 7z"/>
<path d="M1381 3923 c-1 -17 16 -25 25 -12 4 7 3 9 -4 5 -5 -3 -13 0 -15 6 -4
9 -6 10 -6 1z"/>
<path d="M3495 3919 c-6 -8 -4 -10 5 -4 10 6 12 4 6 -11 -6 -15 -5 -17 5 -6 9
9 10 15 2 23 -8 8 -13 7 -18 -2z"/>
<path d="M1385 3860 c-9 -16 -13 -30 -11 -30 3 0 12 14 21 30 9 17 13 30 11
30 -3 0 -12 -13 -21 -30z"/>
<path d="M4045 3880 c-3 -5 -1 -10 4 -10 6 0 11 5 11 10 0 6 -2 10 -4 10 -3 0
-8 -4 -11 -10z"/>
<path d="M861 3858 c0 -15 -5 -30 -11 -33 -5 -3 -10 -18 -10 -33 1 -23 3 -20
16 16 8 24 13 51 11 60 -3 10 -5 6 -6 -10z"/>
<path d="M3536 3837 c3 -10 9 -15 12 -12 3 3 0 11 -7 18 -10 9 -11 8 -5 -6z"/>
<path d="M3565 3790 c3 -5 8 -10 11 -10 2 0 4 5 4 10 0 6 -5 10 -11 10 -5 0
-7 -4 -4 -10z"/>
<path d="M3587 3768 c-3 -12 -3 -28 1 -35 5 -8 8 0 9 22 1 40 -2 44 -10 13z"/>
<path d="M4085 3770 c3 -14 17 -70 30 -125 13 -55 24 -92 24 -81 1 26 -39 198
-51 216 -7 11 -8 8 -3 -10z"/>
<path d="M820 3749 c0 -5 4 -8 9 -4 5 3 11 -5 13 -17 3 -21 4 -21 9 5 5 22 3
27 -12 27 -11 0 -19 -5 -19 -11z"/>
<path d="M1300 3730 c6 -11 13 -20 16 -20 2 0 0 9 -6 20 -6 11 -13 20 -16 20
-2 0 0 -9 6 -20z"/>
<path d="M1500 3628 l0 -93 38 1 c20 1 139 2 265 3 l227 1 0 90 0 90 -265 0
-265 0 0 -92z"/>
<path d="M2497 3398 c-9 -410 -9 -842 0 -1365 l6 -413 56 0 c63 0 213 23 305
46 l61 15 -3 930 -4 929 246 0 246 0 0 90 0 90 -453 0 -454 0 -6 -322z"/>
<path d="M838 3679 c9 -11 17 -19 18 -19 1 0 4 8 7 19 3 14 -1 19 -18 19 -21
0 -22 -2 -7 -19z"/>
<path d="M3626 3671 c-5 -13 -4 -27 3 -34 16 -16 21 -4 12 29 -8 29 -8 29 -15
5z"/>
<path d="M3656 3665 c8 -37 14 -45 14 -19 0 10 -5 26 -10 34 -8 11 -9 7 -4
-15z"/>
<path d="M3640 3609 c-13 -9 -12 -10 3 -5 20 6 22 -5 5 -22 -6 -6 -9 -14 -6
-18 4 -3 12 4 18 16 14 26 1 44 -20 29z"/>
<path d="M4081 3564 c0 -11 3 -14 6 -6 3 7 2 16 -1 19 -3 4 -6 -2 -5 -13z"/>
<path d="M3657 3553 c-3 -5 -1 -26 4 -48 l8 -40 -2 37 c-2 21 2 39 7 41 6 2 6
6 -1 10 -7 4 -14 4 -16 0z"/>
<path d="M771 3513 c-14 -48 -14 -114 0 -133 7 -11 8 -5 3 23 -13 75 13 158
29 92 4 -18 5 -17 6 3 0 13 -6 30 -13 38 -13 13 -16 10 -25 -23z"/>
<path d="M1221 3524 c0 -11 3 -14 6 -6 3 7 2 16 -1 19 -3 4 -6 -2 -5 -13z"/>
<path d="M4143 3500 c0 -25 2 -35 4 -22 2 12 2 32 0 45 -2 12 -4 2 -4 -23z"/>
<path d="M1241 3474 c0 -11 3 -14 6 -6 3 7 2 16 -1 19 -3 4 -6 -2 -5 -13z"/>
<path d="M785 3450 c-3 -5 -1 -10 4 -10 6 0 11 5 11 10 0 6 -2 10 -4 10 -3 0
-8 -4 -11 -10z"/>
<path d="M1118 3380 c-10 -11 -13 -22 -8 -25 6 -4 10 -1 10 5 0 6 4 9 9 5 13
-8 25 15 14 26 -5 5 -16 1 -25 -11z"/>
<path d="M1232 3375 c0 -16 2 -22 5 -12 2 9 2 23 0 30 -3 6 -5 -1 -5 -18z"/>
<path d="M1183 3365 c0 -14 3 -28 7 -30 11 -7 21 22 14 40 -9 23 -21 18 -21
-10z"/>
<path d="M3683 3335 c0 -22 2 -30 4 -17 2 12 2 30 0 40 -3 9 -5 -1 -4 -23z"/>
<path d="M3935 1138 c-71 -41 -55 -133 26 -153 35 -9 87 18 99 51 28 73 -56
141 -125 102z"/>
<path d="M100 1035 l0 -64 123 -3 122 -3 3 -333 2 -332 80 0 80 0 2 332 3 333
123 3 122 3 0 64 0 65 -330 0 -330 0 0 -65z"/>
<path d="M3295 1088 c-2 -7 -65 -187 -138 -400 l-134 -388 92 0 91 0 29 90 29
90 148 0 148 0 27 -90 27 -90 92 0 92 0 -68 198 c-38 108 -99 287 -138 397
l-69 200 -112 3 c-84 2 -113 -1 -116 -10z m215 -465 c0 -2 -45 -3 -100 -3 -55
0 -100 1 -100 3 0 4 89 270 96 287 4 9 27 -48 55 -135 27 -82 49 -151 49 -152z"/>
<path d="M4590 955 l0 -146 -30 35 c-105 119 -298 70 -361 -92 -29 -76 -32
-213 -5 -291 35 -102 130 -172 233 -171 41 1 105 33 135 69 15 17 29 31 32 31
3 0 6 -20 6 -45 l0 -45 80 0 80 0 0 400 0 400 -85 0 -85 0 0 -145z m-63 -195
c48 -29 67 -73 68 -155 0 -89 -24 -142 -77 -168 -72 -35 -138 1 -164 90 -47
161 58 303 173 233z"/>
<path d="M1714 896 c-16 -7 -47 -33 -67 -57 l-37 -43 0 52 0 52 -80 0 -80 0 0
-415 0 -415 80 0 80 0 0 160 c0 88 2 160 4 160 2 0 23 -20 47 -44 33 -32 55
-45 87 -51 103 -17 197 32 247 129 29 57 30 66 30 180 0 111 -3 125 -27 171
-14 28 -37 60 -50 72 -59 55 -167 78 -234 49z m82 -135 c68 -42 87 -205 34
-285 -48 -70 -128 -72 -183 -4 -23 29 -30 49 -34 100 -7 85 9 139 52 177 42
37 85 40 131 12z"/>
<path d="M2339 903 c-15 -2 -51 -19 -80 -36 -190 -113 -179 -454 18 -547 110
-52 267 -34 348 41 43 39 74 94 61 106 -4 4 -36 9 -72 11 -62 4 -67 3 -95 -26
-77 -78 -229 -26 -229 79 l0 29 205 0 205 0 0 23 c0 49 -22 152 -40 186 -53
105 -176 156 -321 134z m124 -127 c42 -17 65 -45 73 -84 l7 -32 -128 0 -127 0
6 32 c8 40 41 76 80 87 44 13 53 13 89 -3z"/>
<path d="M810 733 c32 -93 81 -232 108 -310 49 -140 50 -143 33 -175 -15 -30
-20 -33 -68 -36 l-52 -3 -16 -56 c-13 -46 -14 -57 -3 -64 24 -16 132 -15 185
2 50 16 106 85 136 169 15 41 71 201 126 355 l98 280 -85 3 c-46 2 -86 1 -88
-1 -2 -2 -31 -101 -65 -221 -37 -129 -65 -212 -70 -204 -4 7 -33 106 -65 221
l-58 207 -87 0 -87 0 58 -167z"/>
<path d="M3890 600 l0 -300 85 0 85 0 0 300 0 300 -85 0 -85 0 0 -300z"/>
</g>
</svg>
